<svg xmlns="http://www.w3.org/2000/svg" width="462.827" height="511.999" viewBox="0 0 462.827 511.999">
  <g id="food" transform="translate(-24.587)">
    <path id="Path_9" data-name="Path 9" d="M276.508,389.928H69.71c-12.684,0-22.972,8.194-22.972,18.3v.536c0,10.107,10.284,18.293,22.972,18.293h206.8c12.692,0,22.98-8.186,22.98-18.293v-.536C299.487,398.122,289.2,389.928,276.508,389.928Z" fill="#fff"/>
    <path id="Path_10" data-name="Path 10" d="M97.89,283.859a6.6,6.6,0,1,0,6.61,6.6A6.6,6.6,0,0,0,97.89,283.859Z" fill="#fff"/>
    <path id="Path_11" data-name="Path 11" d="M147.41,283.859a6.6,6.6,0,1,0,6.6,6.6A6.6,6.6,0,0,0,147.41,283.859Z" fill="#fff"/>
    <path id="Path_12" data-name="Path 12" d="M124.3,264.054a6.6,6.6,0,1,0,6.6,6.6A6.593,6.593,0,0,0,124.3,264.054Z" fill="#fff"/>
    <path id="Path_13" data-name="Path 13" d="M160.611,262.406a6.6,6.6,0,1,0,6.6-6.6A6.595,6.595,0,0,0,160.611,262.406Z" fill="#fff"/>
    <path id="Path_14" data-name="Path 14" d="M191.967,298.712a6.6,6.6,0,1,0-6.6-6.606A6.6,6.6,0,0,0,191.967,298.712Z" fill="#fff"/>
    <path id="Path_15" data-name="Path 15" d="M213.427,277.185a6.607,6.607,0,1,0-6.607-6.614A6.6,6.6,0,0,0,213.427,277.185Z" fill="#fff"/>
    <path id="Path_16" data-name="Path 16" d="M246.434,298.712a6.6,6.6,0,1,0-6.6-6.606A6.6,6.6,0,0,0,246.434,298.712Z" fill="#fff"/>
    <path id="Path_17" data-name="Path 17" d="M301.577,365.2a9.163,9.163,0,0,1,2.627-.34,8.251,8.251,0,0,0,0-16.5,25.991,25.991,0,0,0-8.153,1.27,24.56,24.56,0,0,0-5.843,2.864,35.961,35.961,0,0,0-7.034,6.372c-1.38,1.565-2.562,3.024-3.647,4.249a19.092,19.092,0,0,1-4.222,3.885,7.955,7.955,0,0,1-1.913.831,9.355,9.355,0,0,1-2.615.333,9.033,9.033,0,0,1-2.952-.431,7.713,7.713,0,0,1-1.916-.944,20.089,20.089,0,0,1-3.787-3.545c-1.07-1.21-2.241-2.654-3.606-4.226a34.76,34.76,0,0,0-8.092-7.106,24.178,24.178,0,0,0-5.983-2.608,26.21,26.21,0,0,0-7.09-.945,25.773,25.773,0,0,0-8.152,1.27,24.463,24.463,0,0,0-5.84,2.864,35.56,35.56,0,0,0-7.034,6.372c-1.387,1.565-2.562,3.024-3.651,4.249a19.244,19.244,0,0,1-4.218,3.885,8.07,8.07,0,0,1-1.912.831,9.388,9.388,0,0,1-2.62.333,8.98,8.98,0,0,1-2.948-.431,8.22,8.22,0,0,1-1.92-.944,20.424,20.424,0,0,1-3.779-3.545c-1.078-1.21-2.242-2.654-3.606-4.211a34.649,34.649,0,0,0-8.088-7.12,24.216,24.216,0,0,0-5.986-2.608,25.92,25.92,0,0,0-7.09-.945,25.5,25.5,0,0,0-8.149,1.27,24.171,24.171,0,0,0-5.846,2.864,35.973,35.973,0,0,0-7.038,6.372c-1.376,1.565-2.548,3.024-3.633,4.249a19.431,19.431,0,0,1-4.225,3.885,7.852,7.852,0,0,1-1.908.831,9.481,9.481,0,0,1-2.623.333,9.015,9.015,0,0,1-2.952-.431,7.859,7.859,0,0,1-1.908-.952,19.952,19.952,0,0,1-3.788-3.537c-1.078-1.218-2.242-2.661-3.606-4.211a34.559,34.559,0,0,0-8.1-7.12,24.1,24.1,0,0,0-5.972-2.608,25.989,25.989,0,0,0-7.1-.945,25.566,25.566,0,0,0-8.152,1.27,24.27,24.27,0,0,0-5.836,2.857,36.123,36.123,0,0,0-7.041,6.38c-1.38,1.565-2.555,3.024-3.632,4.249a19.341,19.341,0,0,1-4.226,3.885,7.955,7.955,0,0,1-1.913.831,9.708,9.708,0,0,1-2.615.333,9.267,9.267,0,0,1-2.956-.431,7.9,7.9,0,0,1-1.909-.952,19.652,19.652,0,0,1-3.78-3.537c-1.077-1.218-2.249-2.661-3.613-4.219a34.778,34.778,0,0,0-8.088-7.113,24.09,24.09,0,0,0-5.98-2.608,25.931,25.931,0,0,0-7.1-.945,8.251,8.251,0,0,0,0,16.5,9.161,9.161,0,0,1,2.952.431,8.233,8.233,0,0,1,1.916.953,20.1,20.1,0,0,1,3.784,3.538c1.07,1.209,2.242,2.66,3.6,4.218a35.083,35.083,0,0,0,8.089,7.12,24.264,24.264,0,0,0,5.982,2.593,26.925,26.925,0,0,0,15.243-.31,24.818,24.818,0,0,0,5.836-2.866,36.25,36.25,0,0,0,7.044-6.38c1.376-1.564,2.555-3.016,3.636-4.256a19.436,19.436,0,0,1,4.222-3.878,7.9,7.9,0,0,1,1.916-.831,9.371,9.371,0,0,1,2.62-.333,9.226,9.226,0,0,1,2.948.431,8.305,8.305,0,0,1,1.912.953,19.656,19.656,0,0,1,3.784,3.538c1.07,1.209,2.241,2.66,3.606,4.218a35.041,35.041,0,0,0,8.092,7.12,23.972,23.972,0,0,0,5.976,2.593,26.031,26.031,0,0,0,7.1.952,25.729,25.729,0,0,0,8.145-1.262,24.757,24.757,0,0,0,5.843-2.866,35.851,35.851,0,0,0,7.034-6.38c1.387-1.564,2.563-3.016,3.648-4.256a19.5,19.5,0,0,1,4.222-3.878,7.948,7.948,0,0,1,1.913-.831,9.392,9.392,0,0,1,2.622-.333,9.13,9.13,0,0,1,2.94.431,8.207,8.207,0,0,1,1.921.953,20.009,20.009,0,0,1,3.782,3.538c1.074,1.209,2.246,2.66,3.606,4.218a35.02,35.02,0,0,0,8.092,7.12,23.93,23.93,0,0,0,5.979,2.593,26.015,26.015,0,0,0,7.1.952,25.714,25.714,0,0,0,8.142-1.262,24.882,24.882,0,0,0,5.847-2.866,35.937,35.937,0,0,0,7.034-6.38c1.38-1.564,2.559-3.016,3.64-4.256a19.353,19.353,0,0,1,4.23-3.878,7.862,7.862,0,0,1,1.908-.831,9.459,9.459,0,0,1,2.623-.333,9.24,9.24,0,0,1,2.948.431,8.111,8.111,0,0,1,1.909.953A19.807,19.807,0,0,1,246,369.773c1.077,1.209,2.241,2.668,3.613,4.218a34.743,34.743,0,0,0,8.084,7.12,23.9,23.9,0,0,0,5.983,2.593,26.725,26.725,0,0,0,15.239-.31,24.557,24.557,0,0,0,5.847-2.866,35.883,35.883,0,0,0,7.038-6.38c1.376-1.564,2.559-3.016,3.636-4.256a19.508,19.508,0,0,1,4.225-3.878A7.727,7.727,0,0,1,301.577,365.2Z" fill="#fff"/>
    <path id="Path_18" data-name="Path 18" d="M487.414,120.295H413.773l15.455-71.07,54.108-31.416L473,0,411.029,35.981,392.7,120.295H227.407l8.629,112.4a183.577,183.577,0,0,0-65-11.709c-36.4.016-69.616,10.356-95.094,26.827a123.68,123.68,0,0,0-31.82,29.012,86.524,86.524,0,0,0-14.082,27.409h-.578l-1.44,8.594c-.042.265-.075.423-.094.507l-.008.045c-.037.09-.117.317-.234.71a12.82,12.82,0,0,0-.344,1.421,15.119,15.119,0,0,0-.238,2.064c-.034.62-.046,1.2-.046,1.882a29.01,29.01,0,0,0,1.554,9.653,22.117,22.117,0,0,0,3.587,6.508,21.651,21.651,0,0,0,8.908,6.584,28.123,28.123,0,0,0,10.576,1.912h238.7a28.852,28.852,0,0,0,9.437-1.482,22.679,22.679,0,0,0,6.482-3.485,21.689,21.689,0,0,0,6.709-8.882A28.209,28.209,0,0,0,315,319.459c0-.96-.015-1.724-.1-2.668a14.954,14.954,0,0,0-.412-2.314c-.151-.552-.291-.93-.333-1.066l-.011-.037c-.011-.046-.049-.19-.106-.545v.008c-2.15-12.858-7.85-25.05-16.089-36.011-10.084-13.372-23.955-25.028-40.5-34.22L249.648,140.89H465.176L441.6,447.933H309.114a24.944,24.944,0,0,0-8.784-6.289,29.185,29.185,0,0,0-11.535-2.222H53.337a28.432,28.432,0,0,0-13.462,3.137,25.174,25.174,0,0,0-7.654,6.252,31.7,31.7,0,0,0-6.074,12.329,53.163,53.163,0,0,0-1.56,13.335v2.472A35.055,35.055,0,0,0,59.639,512h222.8a35.055,35.055,0,0,0,35.051-35.052v-2.472c0-2-.087-3.984-.272-5.95H460.668ZM254.941,265.1a103.366,103.366,0,0,1,26.552,24.114c6.588,8.76,10.722,17.945,12.238,27.024v.008a26.518,26.518,0,0,0,.6,2.759,2.207,2.207,0,0,1,.076.249c0,.076.008.122.008.212a8.613,8.613,0,0,1-.37,2.774,1.736,1.736,0,0,1-.28.552c-.083.09-.068.12-.51.325a8.015,8.015,0,0,1-2.868.416H51.685a8.244,8.244,0,0,1-2.706-.363,1.794,1.794,0,0,1-.575-.272c-.087-.091-.121-.068-.314-.491a7.18,7.18,0,0,1-.408-2.238l.657-3.93c1.516-9.079,5.651-18.263,12.239-27.024,9.864-13.138,25.255-25.164,44.338-33.774a161.218,161.218,0,0,1,66.123-13.856C203.495,241.566,233.043,250.909,254.941,265.1Zm41.95,211.852a14.466,14.466,0,0,1-14.457,14.461H59.637A14.473,14.473,0,0,1,45.18,476.949v-2.472a34.827,34.827,0,0,1,.711-7.393,15.766,15.766,0,0,1,1.262-3.689,7.524,7.524,0,0,1,1.047-1.587,4.36,4.36,0,0,1,1.663-1.209,8.745,8.745,0,0,1,3.473-.582H288.794a7.918,7.918,0,0,1,3.825.748,4.512,4.512,0,0,1,1.391,1.156A11.428,11.428,0,0,1,296,466.328a32.673,32.673,0,0,1,.888,8.149v2.472Z" fill="#fff"/>
  </g>
</svg>
