<svg xmlns="http://www.w3.org/2000/svg" width="18" height="19.066" viewBox="0 0 18 19.066">
  <g id="math" transform="translate(-3 -1.979)">
    <path id="Path_19" data-name="Path 19" d="M12.482,3.827a1.75,1.75,0,0,0-2.788,1.29L9.535,7.5H12.25a.75.75,0,1,1,0,1.5H9.435l-.6,9.006a3.25,3.25,0,0,1-5.383,2.23l-.2-.171a.75.75,0,1,1,.988-1.129l.2.171a1.75,1.75,0,0,0,2.9-1.2L7.932,9H5.75a.75.75,0,1,1,0-1.5H8.032L8.2,5.017a3.25,3.25,0,0,1,5.177-2.4l.372.276A.75.75,0,1,1,12.854,4.1Z" fill="#fff"/>
    <path id="Path_20" data-name="Path 20" d="M13.712,12.763a.75.75,0,0,0-1.152-.22l-.322.276a.75.75,0,0,1-.976-1.139l.322-.276a2.25,2.25,0,0,1,3.455.66l.978,1.858,2.7-2.7A.75.75,0,0,1,19.78,12.28l-3.032,3.032,1.539,2.925a.75.75,0,0,0,1.152.22l.322-.276a.75.75,0,1,1,.976,1.139l-.322.276a2.25,2.25,0,0,1-3.455-.66l-1.322-2.513L12.28,19.78A.75.75,0,0,1,11.22,18.72l3.687-3.687Z" fill="#fff"/>
  </g>
</svg>
