<svg xmlns="http://www.w3.org/2000/svg" width="20.874" height="22.407" viewBox="0 0 20.874 22.407">
  <path id="music" d="M5.688,9.656V20.562a5.71,5.71,0,0,0-1.406-.219,5.305,5.305,0,0,0-2.875.906A3.033,3.033,0,0,0,0,23.78a2.954,2.954,0,0,0,1.406,2.531,5.27,5.27,0,0,0,2.875.875,5.33,5.33,0,0,0,2.844-.875A2.925,2.925,0,0,0,8.5,23.78V12.342l9.531-2.719v7.531a5.5,5.5,0,0,0-1.438-.188,5.308,5.308,0,0,0-2.875.844,3.006,3.006,0,0,0-1.375,2.531,2.888,2.888,0,0,0,1.375,2.531,5.379,5.379,0,0,0,2.875.906,5.471,5.471,0,0,0,2.875-.906,2.849,2.849,0,0,0,1.406-2.531V5.935a1.1,1.1,0,0,0-1.156-1.156c-.063,0-.438.125-1.031.281-1.25.344-3.125.875-5.25,1.5-1.094.281-2.063.594-3.031.844-.938.281-1.75.563-2.469.75-.75.219-1.219.344-1.406.406a1.163,1.163,0,0,0-.844,1.094Z" transform="translate(-0.001 -4.779)" fill="#fff"/>
</svg>
