<svg xmlns="http://www.w3.org/2000/svg" width="308.52" height="512" viewBox="0 0 308.52 512">
  <g id="question" transform="translate(-101.741 0)">
    <path id="Path_21" data-name="Path 21" d="M396.138,85.295c-13.172-25.037-33.795-45.9-59.342-61.03A176.679,176.679,0,0,0,246.98,0c-41.238-.1-75.5,10.642-101.359,25.521C119.659,40.348,108.465,57.61,108.465,57.61a19.409,19.409,0,0,0,.552,29.84l35.933,28.78a19.41,19.41,0,0,0,24.875-.518s4.414-7.978,18.247-15.88c13.91-7.85,31.945-14.173,58.908-14.258C270.5,85.523,291,94.3,305,106.291a65,65,0,0,1,15.328,18.68c3.208,6.136,4.379,11.5,4.363,15.574-.068,13.766-2.742,22.77-6.6,30.442a62.06,62.06,0,0,1-11.738,15.744c-7.384,7.384-17.4,14.207-28.634,20.479-11.245,6.348-23.365,11.932-35.612,18.68-13.978,7.74-28.77,18.858-39.7,35.544a96.2,96.2,0,0,0-12.416,27.641A117,117,0,0,0,186,320.146v20.708a19.41,19.41,0,0,0,19.41,19.41h46.762a19.411,19.411,0,0,0,19.41-19.41V320.146a32.5,32.5,0,0,1,.917-8.436,10.481,10.481,0,0,1,2.47-4.668c1.29-1.452,3.895-3.674,8.7-6.331,7.019-3.946,18.3-9.276,31.07-16.176,19.121-10.456,42.367-24.646,61.972-48.062a142,142,0,0,0,24.323-41.968,154.984,154.984,0,0,0,9.226-53.96A119.274,119.274,0,0,0,396.138,85.295Z" fill="#fff"/>
    <path id="Path_22" data-name="Path 22" d="M228.809,406.44a52.78,52.78,0,1,0,52.763,52.788A52.8,52.8,0,0,0,228.809,406.44Z" fill="#fff"/>
  </g>
</svg>
