<?xml version="1.0" encoding="iso-8859-1"?>
<!-- Uploaded to: SVG Repo, www.svgrepo.com, Generator: SVG Repo Mixer Tools -->
<!DOCTYPE svg PUBLIC "-//W3C//DTD SVG 1.1//EN" "http://www.w3.org/Graphics/SVG/1.1/DTD/svg11.dtd">
<svg fill="#000000" version="1.1" id="Capa_1" xmlns="http://www.w3.org/2000/svg" xmlns:xlink="http://www.w3.org/1999/xlink" 
	 width="800px" height="800px" viewBox="0 0 541.185 541.186"
	 xml:space="preserve">
<g>
	<g id="Layer_2_25_">
		<path d="M203.784,231.318L27.882,205.557c9.285,31.126,27.167,56.189,50.69,69.471L45.218,502.865
			c-2.677,18.293,9.974,35.285,28.267,37.963s35.286-9.974,37.963-28.267l33.995-232.168
			C167.857,272.352,188.273,254.947,203.784,231.318z"/>
		<path d="M147.719,0.824c-37.045-5.422-73.363,16.304-97.633,53.358L225.95,79.935C213.337,37.477,184.764,6.246,147.719,0.824z"/>
		<path d="M68.819,99.079l23.629,42.113l34.721-33.574l23.601,42.113l34.702-33.574l23.629,42.123l23.782-22.988
			c0.354-12.192-0.392-24.06-2.266-35.353L39.902,72.017c-6.589,13.445-11.676,28.334-14.956,44.255l9.18,16.381L68.819,99.079z"/>
		<path d="M213.949,213.475c7.201-14.66,12.651-31.031,15.864-48.616l-25.245,24.413l-23.629-42.113l-34.721,33.583l-23.601-42.113
			l-34.712,33.574L64.276,130.09l-34.702,33.583l-8.568-15.291c-0.498,12.843,0.249,25.331,2.237,37.179L213.949,213.475z"/>
		<path d="M497.123,197.812L324.73,241.254c20.474,25.217,46.589,41.539,73.401,44.819l56.266,223.275
			c4.514,17.92,22.711,28.792,40.632,24.278c17.92-4.513,28.792-22.711,24.278-40.631l-57.336-227.53
			C479.604,249.458,491.825,225.581,497.123,197.812z"/>
		<path d="M357.204,6.255c-36.309,9.151-61.562,43.108-69.815,86.627l172.354-43.433C431.849,15.043,393.513-2.896,357.204,6.255z"
			/>
		<path d="M302.622,171.496l19.23-44.284l37.934,29.883l19.25-44.303l37.905,29.892l19.24-44.293l37.943,29.893l13.187-30.333
			c-4.331-11.398-9.553-22.08-15.605-31.805L284.797,113.25c-0.947,14.946,0.038,30.647,3.098,46.607L302.622,171.496z"/>
		<path d="M443.831,128.78l-19.239,44.303l-37.906-29.893l-19.239,44.293l-37.935-29.883l-19.23,44.293l-13.761-10.854
			c4.457,12.049,9.917,23.313,16.275,33.507l186.899-47.095c1.052-16.304-0.172-33.507-3.93-50.987l-14,32.207L443.831,128.78z"/>
	</g>
</g>
</svg>