<svg xmlns="http://www.w3.org/2000/svg" width="499.472" height="541.186" viewBox="0 0 499.472 541.186">
  <g id="cultural" transform="translate(-20.857 0)">
    <g id="Layer_2_25_">
      <path id="Path_1" data-name="Path 1" d="M203.784,231.318l-175.9-25.761c9.285,31.126,27.167,56.189,50.69,69.471L45.218,502.865a33.468,33.468,0,1,0,66.23,9.7l33.995-232.168C167.857,272.352,188.273,254.947,203.784,231.318Z" fill="#fff"/>
      <path id="Path_2" data-name="Path 2" d="M147.719.824C110.674-4.6,74.356,17.128,50.086,54.182L225.95,79.935C213.337,37.477,184.764,6.246,147.719.824Z" fill="#fff"/>
      <path id="Path_3" data-name="Path 3" d="M68.819,99.079l23.629,42.113,34.721-33.574,23.6,42.113,34.7-33.574L209.1,158.28l23.782-22.988a183.779,183.779,0,0,0-2.266-35.353L39.9,72.017a185.862,185.862,0,0,0-14.956,44.255l9.18,16.381Z" fill="#fff"/>
      <path id="Path_4" data-name="Path 4" d="M213.949,213.475a186.314,186.314,0,0,0,15.864-48.616l-25.245,24.413-23.629-42.113-34.721,33.583-23.6-42.113L87.905,172.2,64.276,130.09l-34.7,33.583-8.568-15.291a182.391,182.391,0,0,0,2.237,37.179Z" fill="#fff"/>
      <path id="Path_5" data-name="Path 5" d="M497.123,197.812,324.73,241.254c20.474,25.217,46.589,41.539,73.4,44.819L454.4,509.348a33.469,33.469,0,0,0,64.91-16.353l-57.336-227.53C479.6,249.458,491.825,225.581,497.123,197.812Z" fill="#fff"/>
      <path id="Path_6" data-name="Path 6" d="M357.2,6.255c-36.309,9.151-61.562,43.108-69.815,86.627L459.743,49.449C431.849,15.043,393.513-2.9,357.2,6.255Z" fill="#fff"/>
      <path id="Path_7" data-name="Path 7" d="M302.622,171.5l19.23-44.284L359.786,157.1l19.25-44.3,37.9,29.892,19.24-44.293,37.943,29.893,13.187-30.333a183.713,183.713,0,0,0-15.605-31.805L284.8,113.25a185.673,185.673,0,0,0,3.1,46.607Z" fill="#fff"/>
      <path id="Path_8" data-name="Path 8" d="M443.831,128.78l-19.239,44.3L386.686,143.19l-19.239,44.293L329.512,157.6l-19.23,44.293-13.761-10.854A183.934,183.934,0,0,0,312.8,224.546l186.9-47.1a186.045,186.045,0,0,0-3.93-50.987l-14,32.207Z" fill="#fff"/>
    </g>
  </g>
</svg>
