<svg xmlns="http://www.w3.org/2000/svg" width="23.974" height="24" viewBox="0 0 23.974 24">
  <path id="religious" d="M11.73,23.884A20.385,20.385,0,0,1,9.987,22.73a4.773,4.773,0,0,1-1.56-1.813.4.4,0,0,0-.065-.147,1.234,1.234,0,0,0-.176.069,3.515,3.515,0,0,1-1.591.229,8.549,8.549,0,0,1-1.74-.23c-1.03-.2-1.324-.3-1.4-.453a5.761,5.761,0,0,1-.265-1.063,8.077,8.077,0,0,1-.264-2.09,2.985,2.985,0,0,1,.192-1.32c.1-.274.1-.322.03-.322a3.746,3.746,0,0,1-1.1-.694A13.041,13.041,0,0,1,.09,12.22a.387.387,0,0,1-.013-.446,13.5,13.5,0,0,1,1.9-2.623,3.952,3.952,0,0,1,1.2-.775c.027,0,.036-.016.026-.043a6.2,6.2,0,0,1-.254-.946A6.707,6.707,0,0,1,3.03,5.41c.111-.59.328-1.566.378-1.7.1-.274.135-.288,1.11-.5a6.15,6.15,0,0,1,3.53-.11,2.453,2.453,0,0,0,.3.1c.018,0,.05-.053.069-.118a3.157,3.157,0,0,1,.91-1.248A9.453,9.453,0,0,1,11.051.524c.17-.1.082-.026-.167.14A19.663,19.663,0,0,0,9.2,1.99q-.186.2-.353.426a2.993,2.993,0,0,0-.426.79c0,.065-.031.06-.338-.05a3.05,3.05,0,0,0-1.319-.194A8.172,8.172,0,0,0,4.8,3.2a5.14,5.14,0,0,0-1.21.318c-.11.071-.14.163-.31.9a8.138,8.138,0,0,0-.3,2.276,3.3,3.3,0,0,0,.192,1.42l.088.238c.01.03-.03.057-.148.1a3.253,3.253,0,0,0-.864.533A7.382,7.382,0,0,0,.8,10.688a5.187,5.187,0,0,0-.768,1.3,12.278,12.278,0,0,0,1.574,2.381,6.058,6.058,0,0,0,.887.849,2.906,2.906,0,0,0,.695.349c.076,0,.077.049.007.222a5.466,5.466,0,0,0-.1,2.9c.085.48.33,1.56.377,1.657.077.162.185.2,1.075.388a10.25,10.25,0,0,0,2.488.308,4.274,4.274,0,0,0,1.067-.21,1.344,1.344,0,0,1,.252-.082c.033,0,.064.048.1.156A4.586,4.586,0,0,0,10,22.684a12.2,12.2,0,0,0,1.906,1.238c.1.03.123.026.293-.058a18.348,18.348,0,0,0,2.173-1.483,4.452,4.452,0,0,0,1.155-1.465c.073-.2.063-.2.4-.082a5,5,0,0,0,2.364.116,18.717,18.717,0,0,0,2.04-.44c.124-.064.182-.145.251-.347.05-.144.06-.161.048-.076a1.232,1.232,0,0,1-.082.26c-.076.168-.172.225-.5.3-.1.022-.348.078-.54.124a6.276,6.276,0,0,1-3.717.062,1.045,1.045,0,0,0-.152-.06.436.436,0,0,0-.067.15,3.464,3.464,0,0,1-.506.826,7.35,7.35,0,0,1-.947.908A13.54,13.54,0,0,1,12,24a1.59,1.59,0,0,1-.27-.116Zm-.36-.629a9.259,9.259,0,0,1-1.926-1.45,2.643,2.643,0,0,1-.831-1.56c-.018-.163-.026-.959-.02-2.024L8.6,16.467l.75-.007.75-.007.1.07a10.352,10.352,0,0,1,1.021,1.04c-.008.013-.391.39-.851.84l-.837.815v-.854l.4-.4c.222-.222.4-.409.4-.415a2.666,2.666,0,0,0-.362-.38l-.117-.1H9.225l.008,1.65c.008,1.65.008,1.65.072,1.809a4.642,4.642,0,0,0,1.62,1.71A5.769,5.769,0,0,0,12,22.887c.093,0,.3-.127.877-.537A7.288,7.288,0,0,0,14.152,21.3a1.729,1.729,0,0,0,.607-1.122.438.438,0,0,1,.04-.19,5.7,5.7,0,0,1,.5.575c.03.049.018.09-.091.318a5.59,5.59,0,0,1-2.233,2.154,9.765,9.765,0,0,1-.99.6c-.008,0-.285-.172-.615-.383Zm.026-1.078c-.327-.22-.7-.484-.823-.584a5.287,5.287,0,0,1-.87-.92,1.411,1.411,0,0,1-.17-.887v-.443l.063.02c.18.06.168.07,1.046-.786.46-.448.846-.815.858-.815a2.094,2.094,0,0,1,.263.238l.24.239.264-.25.264-.251.6.6L14.2,19.424l.471.478-.1.04c-.092.039-.1.047-.126.255a1.536,1.536,0,0,1-.58.977,3.218,3.218,0,0,1-.683.56,2.377,2.377,0,0,1,.2-.173,4.618,4.618,0,0,0,.8-.806,1.509,1.509,0,0,0,.24-.64c.014-.13.03-.163.083-.188.036-.016.066-.043.066-.06,0-.047-2.014-2.05-2.06-2.05a1.376,1.376,0,0,0-.279.236L12,18.289l-.25-.234a2.075,2.075,0,0,0-.28-.236c-.014,0-.4.371-.855.826l-.828.828-.093-.034a.66.66,0,0,0-.115-.034,2.439,2.439,0,0,0-.012.455l.01.454.123.249a1.883,1.883,0,0,0,.487.612,6.45,6.45,0,0,0,.66.575c.385.275,1.117.755,1.153.755a2.018,2.018,0,0,0,.278-.16c.3-.19.262-.144-.058.077l-.225.156Zm-5.26-1.465a15.472,15.472,0,0,1-1.6-.294c-.825-.184-.823-.183-.823-.272a2.3,2.3,0,0,0-.07-.328,13.658,13.658,0,0,1-.394-2.447,2.561,2.561,0,0,1,.54-1.949c.165-.186,2.634-2.646,2.655-2.644s.949.912,1.014,1l.07.1v1.52H6.344a11.349,11.349,0,0,1-1.183-.026,4.743,4.743,0,0,1,.607-.59,5.472,5.472,0,0,1,.6-.022l.55,0v-.637l-.1-.12q-.111-.125-.233-.239l-.129-.119-1.14,1.128c-1.224,1.209-1.256,1.247-1.364,1.63a6.614,6.614,0,0,0,.014,1.81,10.879,10.879,0,0,0,.318,1.5,14.2,14.2,0,0,0,1.746.357,5.429,5.429,0,0,0,1.51-.012,1.193,1.193,0,0,0,.563-.28,1.775,1.775,0,0,1,.2-.14,2.708,2.708,0,0,1,.015.4v.4l-.258.1a3.8,3.8,0,0,1-.466.148,7.316,7.316,0,0,1-1.448.04Zm10.523,0a3.785,3.785,0,0,1-.67-.167c-.34-.127-.467-.239-1.863-1.645L12.772,17.54l.348-.364c.19-.2.44-.445.553-.544l.207-.18.744.007.743.007.007,1.176c0,.648,0,1.177-.014,1.177a4.467,4.467,0,0,1-.562-.58,2.7,2.7,0,0,1-.03-.619v-.555H14.12l-.239.234-.238.234.577.6c.317.329.827.843,1.132,1.143a2.9,2.9,0,0,0,.759.642,5.164,5.164,0,0,0,3.122-.082,3.111,3.111,0,0,0,.482-.133A10.241,10.241,0,0,0,20,18.429,6.874,6.874,0,0,0,20.108,17a1.614,1.614,0,0,0-.428-1.238l-.073-.09h.81l.072.155a3.027,3.027,0,0,1,.247,1.39,8.2,8.2,0,0,1-.16,1.524c-.075.4-.313,1.47-.332,1.49-.044.043-1.49.35-2.023.429a8.416,8.416,0,0,1-1.562.052Zm.045-.933a1.4,1.4,0,0,1-.974-.573l-.279-.285.084-.037a.49.49,0,0,1,.118-.037,6.089,6.089,0,0,0,.035-1.227V16.4h.724v-.724h1.532c.842,0,1.531.007,1.531.015a.726.726,0,0,1-.041.114l-.042.1.139.152a.807.807,0,0,1,.2.352,2.406,2.406,0,0,1,.062.854,4.938,4.938,0,0,1-.05.92q-.128.651-.279,1.3c-.02.015-.854.185-1.132.231a5.191,5.191,0,0,1-1.63.073Zm1.24-.058c.16-.024.54-.092.842-.153s.574-.11.6-.11c.068,0,.06.028.208-.78a7.653,7.653,0,0,0,.183-1.523,1.57,1.57,0,0,0-.3-1.1c-.127-.146-.128-.15-.089-.254l.027-.071H16.467l0,.337a.967.967,0,0,1-.03.369.984.984,0,0,1-.364.026l-.332-.006-.007,1.19-.007,1.189-.09.042c-.05.023-.09.055-.09.071a2.63,2.63,0,0,0,.3.327,1.373,1.373,0,0,0,1.022.5,6.555,6.555,0,0,0,1.072-.055ZM5.9,19.751q-.66-.11-1.311-.264c-.086-.028-.087-.03-.176-.464a4.725,4.725,0,0,1-.086-2.78,4.584,4.584,0,0,1,.733-.765c.02,0,.047.04.061.09l.027.091,1.218.007,1.219.007V16.4h.724v1.532c0,.843-.01,1.532-.024,1.532a.609.609,0,0,1-.112-.03c-.081-.03-.1-.024-.2.068a1.067,1.067,0,0,1-.508.254,7.716,7.716,0,0,1-1.567,0Zm1.656-.066a1.067,1.067,0,0,0,.435-.258c.075-.07.1-.076.162-.051a.627.627,0,0,0,.088.029c.007,0,.012-.666.012-1.479V16.447l-.285.02a1.229,1.229,0,0,1-.362-.011l-.077-.03v-.7l-1.19-.007-1.191-.007-.042-.09c-.023-.05-.05-.09-.059-.09a3.714,3.714,0,0,0-.316.3,1.35,1.35,0,0,0-.507,1.247A6.3,6.3,0,0,0,4.4,18.711c.142.73.147.75.224.75a2.761,2.761,0,0,1,.352.069,7.082,7.082,0,0,0,1.889.226,1.955,1.955,0,0,0,.7-.07ZM20.7,19.639c0-.032.008-.039.017-.017a.058.058,0,0,1,0,.054C20.708,19.685,20.7,19.669,20.7,19.639Zm.03-.123c0-.038.006-.054.014-.035a.105.105,0,0,1,0,.07C20.739,19.57,20.733,19.554,20.733,19.516Zm.026-.114a3.827,3.827,0,0,1,.067-.385,8.837,8.837,0,0,0,.2-1.645,3.609,3.609,0,0,0-.17-1.41,2.46,2.46,0,0,1-.089-.31,1.968,1.968,0,0,1,.21.531,5.689,5.689,0,0,1-.039,2.45,4.1,4.1,0,0,1-.179.769ZM9.533,17.639v-.267h.1c.1,0,.288.109.288.165a1.217,1.217,0,0,1-.195.2l-.195.173Zm.206.032.128-.146L9.8,17.462a.27.27,0,0,0-.153-.063H9.561v.21a.454.454,0,0,0,.025.208.69.69,0,0,0,.153-.146Zm4.506.037-.173-.194.093-.071a.325.325,0,0,1,.2-.071h.1v.264a.824.824,0,0,1-.022.265,1.265,1.265,0,0,1-.195-.194Zm.19-.1V17.4h-.082a.271.271,0,0,0-.16.07l-.079.069.154.138c.084.076.156.139.16.14A1.545,1.545,0,0,0,14.435,17.608Zm-3.163-.522c-.38-.387-.764-.769-.853-.85l-.164-.145H7.89V13.726l-.207-.231q-.416-.436-.85-.853C6.48,12.3,6.191,12.01,6.191,12s.383-.4.85-.868l.85-.845V7.847h2.432l.824-.821c.454-.452.837-.822.851-.822s.4.37.85.822l.823.821h2.435v2.437l.849.837c.467.46.85.852.85.869s-.29.31-.643.652q-.435.417-.849.856l-.207.234v2.359H13.737l-.173.162c-.1.09-.48.472-.854.85s-.7.686-.714.686-.344-.316-.724-.7Zm1.464-.888a8.141,8.141,0,0,1,.733-.691,9.3,9.3,0,0,1,1.051-.03h.973v-2l.094-.123c.051-.067.364-.383.7-.7a7.684,7.684,0,0,0,.619-.638c.015-.048-.1-.172-.669-.744q-.363-.357-.713-.728c-.014-.022-.025-.483-.026-1.05V8.487H13.448l-.712-.71c-.391-.39-.726-.71-.742-.71s-.292.267-.61.592-.64.645-.716.71l-.137.119H8.5v2.044l-.71.712a9.989,9.989,0,0,0-.71.752,9.522,9.522,0,0,0,.71.737l.71.7v2.047h.973a8.6,8.6,0,0,1,1.051.03,8.717,8.717,0,0,1,.766.728c.621.632.693.7.738.662.028-.02.345-.335.7-.7Zm-1.31-.3q-.325-.334-.662-.655l-.12-.1H9.032v-1.01c0-1.1.006-1.148.162-1.481a2.717,2.717,0,0,1,1.717-1.42c.15-.031.169-.042.177-.109.006-.052,0-.074-.035-.074-.055,0-.055-.03,0-.1s.053-.15-.016-.15c-.05,0-.056-.012-.04-.077a.551.551,0,0,1,.066-.146c.045-.068.047-.06.06.276l.014.345.178.037a2.723,2.723,0,0,1,.867.421,3.3,3.3,0,0,1,.7.76,2.744,2.744,0,0,1,.3,1.5v.472h.305v-.526a2.991,2.991,0,0,0-.322-1.571,2.173,2.173,0,0,0-.51-.686c-.13-.13-.223-.24-.2-.246a1.118,1.118,0,0,0,.005-.536.315.315,0,0,1-.166-.179c0-.035.063-.043.383-.05l.383-.008.008-.57c.007-.556.006-.572-.052-.616a.283.283,0,0,1,0-.354,1.246,1.246,0,0,1,.448-.37c.142-.043.212-.022.412.126.271.2.389.467.257.587-.053.047-.056.085-.056.63V10.6h.39a1.312,1.312,0,0,1,.39.027.494.494,0,0,1-.126.13l-.125.106v.223a.542.542,0,0,0,.042.278c.031.042.04.143.04.428v.375l-.166.178c-.284.3-.264.187-.273,1.576l-.008,1.219h-.429a3.16,3.16,0,0,0-.493.024,15.969,15.969,0,0,0-1.233,1.208c-.027.042-.064.076-.08.077a7.379,7.379,0,0,1-.576-.55Zm3.1-1.894c.01-1.326-.01-1.223.27-1.512a1,1,0,0,0,.191-.258c.024-.075.03-.079.032-.025,0,.094-.037.157-.22.34a.681.681,0,0,0-.194.275,11.275,11.275,0,0,0-.023,1.227,4.681,4.681,0,0,1-.028,1.116A4.819,4.819,0,0,1,14.524,14.009Zm.572,1.143.063-.012V13.3l.644-.655.644-.654-.613-.614-.613-.613-.1.077c-.084.063-.1.094-.1.177a.35.35,0,0,1-.027.143c-.02.032-.027.022-.028-.044a.371.371,0,0,1,.114-.291c.046-.025.053-.062.053-.264v-.236h-.752v-.36a1.06,1.06,0,0,1,.055-.48.529.529,0,0,0-.027-.514q-.044-.084-.083-.171s.194-.007.431-.007h.432v1.88l.57.557c.313.306.61.605.659.663L16.5,12l-.66.661-.658.661v1.85l-.077,0c-.066,0-.067-.006-.014-.016Zm.063-5.606V8.822h-.376a2.883,2.883,0,0,0-.376.012,1.393,1.393,0,0,0,.056.141.7.7,0,0,1,0,.54.951.951,0,0,0-.055.438v.317h.752V9.546ZM8.12,12.63c-.313-.31-.58-.586-.6-.614-.023-.043.072-.148.629-.7l.656-.647V8.794h1.879l.65-.66.65-.659L12.515,8c.29.29.527.539.527.553a.97.97,0,0,1-.154.187,1.2,1.2,0,0,0-.2.267.651.651,0,0,0,.015.5.961.961,0,0,1,.059.444.856.856,0,0,1-.034.344,1.091,1.091,0,0,1-.406.034h-.373l.019.216c.014.162.032.227.072.262a.145.145,0,0,1,.052.1c0,.048,0,.047-.032,0a.342.342,0,0,0-.068-.083.691.691,0,0,1-.055-.285l-.019-.257.4-.008.4-.008.009-.3a.758.758,0,0,0-.063-.448.634.634,0,0,1,.179-.78.844.844,0,0,0,.14-.175,11.2,11.2,0,0,0-1-.985,8.317,8.317,0,0,0-.654.626l-.617.627H8.837V10.7l-.64.63c-.353.348-.641.645-.641.66,0,.035,1.109,1.12,1.144,1.12.014,0,.025-.028.025-.064a2.526,2.526,0,0,1,.417-.965,3.152,3.152,0,0,1,1.155-.99l.225-.111.119-.306c.065-.169.14-.35.167-.4l.048-.1h.585l.008.38.008.38.09.017a1.65,1.65,0,0,1,.3.114,1.779,1.779,0,0,0,.226.1c.014,0,.03-.04.035-.09.01-.079.012-.075.016.028,0,.065-.006.118-.02.118a2.3,2.3,0,0,1-.257-.109,2.3,2.3,0,0,0-.323-.127l-.09-.019-.008-.367-.008-.367-.23-.008a.955.955,0,0,0-.28.02,1.257,1.257,0,0,0-.184.374,1.751,1.751,0,0,1-.193.4.91.91,0,0,1-.207.113,3.253,3.253,0,0,0-1.14.967,2.586,2.586,0,0,0-.426,1.02c0,.044-.014.08-.032.08a8.056,8.056,0,0,1-.6-.564ZM20.738,15.6a.39.39,0,0,1,.146-.064,3.224,3.224,0,0,0,.764-.452l.18-.14-.125.131a2.47,2.47,0,0,1-.668.444C20.851,15.6,20.713,15.637,20.738,15.6Zm-4.27-.995v-.764l.543-.538.543-.538.842.843.842.843h-.871l-.407-.411-.407-.411-.236.24-.237.24v.65l1.664-.008,1.664-.008.22-.106a2.923,2.923,0,0,0,.884-.681,8.847,8.847,0,0,0,1.082-1.426c.27-.422.31-.5.3-.57a12.452,12.452,0,0,0-.986-1.482q-.244-.3-.51-.57A1.831,1.831,0,0,0,20.2,9.232l-.23-.03.272-.275c.312-.314.288-.308.641-.146A6.141,6.141,0,0,1,23.115,11.1a3.928,3.928,0,0,1,.51.885c0,.1-.113.291-.56.953a6.322,6.322,0,0,1-2.058,2.213c-.416.215-.348.21-2.569.21h-1.97ZM3.326,15.3a3.554,3.554,0,0,1-1.492-1.126A20.638,20.638,0,0,1,.427,12.155l-.09-.16.132-.229c.2-.347.8-1.252,1.04-1.565a8.859,8.859,0,0,1,.63-.7,2.9,2.9,0,0,1,1.17-.815l.223-.076,2-.008,2-.008v1.542l-.543.546-.544.546-.82-.836c-.45-.46-.82-.846-.82-.858a1.788,1.788,0,0,1,.416-.014l.419.01.384.4a3.009,3.009,0,0,0,.428.4A1.124,1.124,0,0,0,6.7,10.1l.212-.223V9.21l-1.636.008-1.636.008-.166.067a4.98,4.98,0,0,0-2.06,2.13,3.085,3.085,0,0,0-.322.565,11.953,11.953,0,0,0,1.038,1.57,5.754,5.754,0,0,0,1,.967,1.6,1.6,0,0,0,.656.222.419.419,0,0,1,.174.034,2.884,2.884,0,0,1-.257.286l-.258.267Zm.71-.746c-.038-.092-.042-.094-.244-.107a1.14,1.14,0,0,1-.682-.3,6.1,6.1,0,0,1-.825-.872c-.217-.28-.856-1.232-.856-1.277a6.257,6.257,0,0,1,.456-.73c.732-1.034,1.231-1.535,1.672-1.675a2.7,2.7,0,0,1,.612-.059l.47-.013-.022.08c-.05.183-.06.17.8,1.038l.833.833-.234.255c-.128.14-.237.264-.24.275a1.757,1.757,0,0,0,.227.272l.235.252L5.18,13.58q-.532.542-1.084,1.063c-.011,0-.038-.043-.06-.094Zm.915-.777c.44-.433.9-.9,1.024-1.032l.225-.246-.241-.242a1.782,1.782,0,0,1-.241-.27,2.051,2.051,0,0,1,.243-.27l.243-.245-.845-.846-.846-.846.031-.09a.605.605,0,0,0,.032-.119,3.659,3.659,0,0,0-.993.047,4,4,0,0,0-1.377,1.26,11.885,11.885,0,0,0-.71,1.084c-.014.054.047.164.308.554a8.283,8.283,0,0,0,.988,1.277,1.669,1.669,0,0,0,1.053.623c.152.015.184.027.209.083.016.035.045.065.064.065s.394-.354.833-.787Zm17.551.467a12.563,12.563,0,0,0,.985-1.407c.447-.7.487-.788.445-.945a19.9,19.9,0,0,0-1.184-1.825,4.556,4.556,0,0,0-1.838-1.6l-.174-.069q.045-.164.1-.324a3.485,3.485,0,0,0,.185-1.457A11.406,11.406,0,0,0,20.641,4.1c-.118-.473-.162-.562-.308-.626a8.878,8.878,0,0,0-1.3-.318,6.528,6.528,0,0,0-1.74-.2,3.4,3.4,0,0,0-1.382.2q-.153.051-.309.095a.332.332,0,0,1-.05-.118A5.621,5.621,0,0,0,13.181.712,5.444,5.444,0,0,0,12.057.059a.419.419,0,0,0-.191.02,5.55,5.55,0,0,0-.544.3C11.288.4,11.26.412,11.26.4a3.1,3.1,0,0,1,.65-.387.3.3,0,0,1,.27.038,16.763,16.763,0,0,1,1.462.928,5.744,5.744,0,0,1,1.49,1.363,2.572,2.572,0,0,1,.472.832c0,.031.014.046.035.037a3.3,3.3,0,0,1,1.567-.306,8.027,8.027,0,0,1,1.81.207c1.048.2,1.4.307,1.507.463a8.051,8.051,0,0,1,.36,1.414,7.367,7.367,0,0,1,.19,1.754,3.341,3.341,0,0,1-.21,1.385,1.26,1.26,0,0,0-.075.229,1.361,1.361,0,0,0,.152.054,3.659,3.659,0,0,1,1.168.838,10.8,10.8,0,0,1,1.46,1.938c.355.556.419.676.419.788a10.758,10.758,0,0,1-1.6,2.44c-.093.09-.059.037.118-.18Zm-2.932.217-.226-.01.044-.125.045-.124-.849-.85-.848-.849.243-.244a1.886,1.886,0,0,0,.243-.271,2,2,0,0,0-.243-.272l-.244-.244,1.086-1.07,1.086-1.069.04.09c.04.088.05.093.273.123a1.252,1.252,0,0,1,.727.357,5.062,5.062,0,0,1,.856.944A12.7,12.7,0,0,1,22.567,12a4.968,4.968,0,0,1-.283.453c-.807,1.21-1.345,1.779-1.844,1.944a3.008,3.008,0,0,1-.87.062Zm.782-.079c.33-.086.547-.25,1.011-.763.147-.162.353-.41.459-.553A10.217,10.217,0,0,0,22.511,12a8.747,8.747,0,0,0-.665-1.014,6.117,6.117,0,0,0-.672-.8,1.9,1.9,0,0,0-.585-.482,1.437,1.437,0,0,0-.414-.128c-.237-.033-.254-.04-.254-.113,0-.03-.016-.054-.035-.054s-.5.463-1.062,1.028L17.8,11.464l.241.26a2.82,2.82,0,0,1,.24.278,2.578,2.578,0,0,1-.234.267l-.235.247.838.856.838.857-.046.1-.045.1h.4a2.483,2.483,0,0,0,.562-.043Zm-14.1-.11a1,1,0,0,1,.213-.182c.065,0,.149.144.149.255v.108H6.068Zm.306.046a.208.208,0,0,0-.05-.153c-.047-.043-.06-.036-.2.107l-.152.153h.4Zm10.834.029a.283.283,0,0,1,.076-.2l.077-.091.194.2.194.2h-.541Zm.32-.062a.64.64,0,0,0-.171-.139c-.053,0-.121.115-.121.2v.078h.429Zm-.7-3.6-.535-.538V8.6h1.183c.651,0,1.184.007,1.184.017a3.4,3.4,0,0,1-.27.293c-.209.212-.3.282-.383.305a2.952,2.952,0,0,1-.607.011l-.5-.02v.675l.213.222a1.122,1.122,0,0,0,.253.223c.022,0,.543-.505,1.159-1.121C19.9,8.01,19.922,7.981,20.033,7.6a5.07,5.07,0,0,0,.042-1.562,14.68,14.68,0,0,0-.355-1.768c-.023-.023-.9-.211-1.289-.277A6.674,6.674,0,0,0,17,3.873a1.729,1.729,0,0,0-1.16.37l-.15.127v-.8l.235-.1a2.392,2.392,0,0,1,1.3-.2,6.374,6.374,0,0,1,1,.05c.432.068,1.912.373,1.978.409s.1.164.334,1.253a6.464,6.464,0,0,1,.109,2.7,3.213,3.213,0,0,1-.184.5l-.125.265-1.39,1.386c-.765.762-1.394,1.385-1.4,1.385s-.249-.242-.543-.538ZM6.264,9.73a1.577,1.577,0,0,1-.156-.195.911.911,0,0,1,.25-.017h.251v.12a.219.219,0,0,1-.078.195.4.4,0,0,1-.094.075,1.285,1.285,0,0,1-.173-.178Zm.317-.091c0-.089-.005-.093-.1-.093a1.43,1.43,0,0,0-.214.019l-.109.018.15.132.152.133.063-.058A.2.2,0,0,0,6.581,9.639Zm10.88.19a.238.238,0,0,1-.074-.194V9.518l.132.005.132.005-.118.01c-.113.011-.118.016-.118.1a.206.206,0,0,0,.072.158l.072.068.146-.164c.08-.09.162-.159.182-.152s-.045.083-.158.184l-.194.171Zm1.43-1.384a.433.433,0,0,1-.028-.1c0-.015-.5-.029-1.219-.033l-1.218-.007-.008-.369-.008-.369h-.723V4.507l.072.027a.219.219,0,0,0,.278-.059c.352-.37,1.335-.4,2.853-.095.268.054.513.11.543.122.046.02.074.108.162.508a6.391,6.391,0,0,1,.2,1.348c.01.361.01.361-.014.1q-.028-.272-.072-.543-.118-.685-.267-1.365c-.023-.02-1.13-.238-1.415-.277a5.411,5.411,0,0,0-1.28-.045,1.138,1.138,0,0,0-.664.27c-.132.115-.157.126-.243.11l-.1-.018V7.513h.33c.259,0,.34.01.366.042a1.048,1.048,0,0,1,.038.369l0,.327,1.187.007,1.188.007.034.084c.02.045.05.083.068.083a4.572,4.572,0,0,0,.664-.683,2.2,2.2,0,0,0,.16-.593l.024-.186-.01.236c-.016.4-.084.53-.514.98-.316.334-.355.36-.393.26ZM3.583,8.285A3.082,3.082,0,0,1,3.25,6.566,11.824,11.824,0,0,1,3.605,4.36l.144-.634.1-.016c.055-.01.22-.046.365-.083.4-.1,1.334-.28,1.727-.335a4.656,4.656,0,0,1,1.985.114c.434.152.51.218,2.2,1.916l1.109,1.113-.287.293c-.158.16-.4.4-.545.539l-.257.246H8.586V6.343c0-1.036.005-1.17.043-1.17a3.876,3.876,0,0,1,.583.581,3.6,3.6,0,0,1,.02.6l-.009.55H9.9l.195-.188a2.09,2.09,0,0,0,.22-.235c.021-.038-.182-.256-1.114-1.191C8.165,4.246,8.045,4.135,7.885,4.062a4.31,4.31,0,0,0-2.39-.07,5.764,5.764,0,0,0-1.207.29,9.44,9.44,0,0,0-.342,1.574,7.446,7.446,0,0,0-.014,1.657,1.54,1.54,0,0,0,.306.62.55.55,0,0,1,.115.156,2.121,2.121,0,0,1-.77,0Zm.952.009a.223.223,0,0,1,.026-.128c.041-.1.04-.1-.04-.17a1.316,1.316,0,0,1-.3-.623,5.44,5.44,0,0,1,0-1.378c.042-.319.2-1.167.266-1.383l.028-.1.3-.069A8.474,8.474,0,0,1,6.79,4.164a2.063,2.063,0,0,1,.937.148,4.483,4.483,0,0,1,.757.7c.044.067.046.078.008.078a.358.358,0,0,0-.114.032l-.07.032V7.567l-.356.008L7.6,7.583l-.014.362-.014.362L6.06,8.314c-.947.005-1.515,0-1.525-.02Zm2.987-.376a1.378,1.378,0,0,1,.038-.369c.022-.026.122-.036.361-.036h.331V5.119L8.341,5.1c.048-.012.093-.036.1-.053a3.608,3.608,0,0,0-.68-.673,4.853,4.853,0,0,0-2.814.083c-.345.077-.4.1-.41.147l-.068.309a5.247,5.247,0,0,0-.095,2.836,1.244,1.244,0,0,0,.154.2c.1.11.11.129.083.2-.016.045-.021.09-.012.1s.67.013,1.467.009l1.45-.007Zm5.8-.926a7,7,0,0,1-.525-.55c0-.033,1.617-1.659,1.65-1.659a2.229,2.229,0,0,1,.02.419V5.62l-.4.407-.4.406.054.077a2.265,2.265,0,0,0,.224.233l.17.157h.665V3.721l-.068-.2a2.625,2.625,0,0,0-.762-1.078q-.224-.211-.466-.4c-.31-.234-1.409-.96-1.454-.96a6.412,6.412,0,0,0-1.362.88c-.93.7-1.331,1.2-1.41,1.772a.63.63,0,0,1-.059.244,2.082,2.082,0,0,1-.275-.254c-.238-.242-.249-.258-.233-.352A2.308,2.308,0,0,1,9,2.711a6.707,6.707,0,0,1,1.9-1.693A5.977,5.977,0,0,1,12,.355a12.236,12.236,0,0,1,1.741,1.11,6.828,6.828,0,0,1,1.148,1.1,2.546,2.546,0,0,1,.466.919c.019.106.03.854.03,2.095v1.93h-1.54ZM9.533,6.343a.838.838,0,0,1,.02-.25,1.3,1.3,0,0,1,.195.172l.174.173-.074.078a.224.224,0,0,1-.195.078h-.12Zm.291.152c.053-.04.05-.046-.082-.18a.827.827,0,0,0-.159-.14.4.4,0,0,0-.022.182v.18h.1a.32.32,0,0,0,.158-.042Zm4.324.02-.075-.077.175-.173a1.365,1.365,0,0,1,.194-.173.81.81,0,0,1,.02.251v.25h-.12a.22.22,0,0,1-.194-.077Zm.287-.158a.447.447,0,0,0-.02-.181,1,1,0,0,0-.259.265c0,.059.068.1.173.1h.106ZM10.4,5.167q-.542-.533-1.065-1.085c0-.01.042-.032.094-.05.091-.03.094-.034.111-.224a1.6,1.6,0,0,1,.072-.336,5.188,5.188,0,0,1,1.846-1.715c.287-.189.53-.343.54-.343a2.587,2.587,0,0,1,.42.287c.011.018-.01.013-.048-.012l-.22-.137L12,1.459l-.114.064a11.9,11.9,0,0,0-1.172.817c-.842.673-1.156,1.105-1.156,1.59a.116.116,0,0,1-.084.131l-.084.04,1.043,1.043,1.043,1.042.268-.246.269-.246.248.247.249.247.174-.166c.1-.09.483-.471.86-.844.62-.614.69-.676.743-.648a.268.268,0,0,0,.1.03c.042,0,.045-.04.034-.424a1.4,1.4,0,0,0-.192-.843c-.078-.133-.079-.135-.01-.055a1.39,1.39,0,0,1,.146.223c.072.133.075.16.085.65l.01.513L14.4,4.608q-.066-.016-.131-.035c-.06-.018-.154.069-.891.82-.454.461-.839.839-.856.839a.242.242,0,0,1-.1-.073q-.125-.125-.257-.241l-.19-.169-.243.241a3.434,3.434,0,0,1-.255.242c-.007,0-.493-.48-1.08-1.066Zm3.433-2.342a2.282,2.282,0,0,1-.236-.254,1.755,1.755,0,0,1,.4.377,1.534,1.534,0,0,1,.118.162q-.147-.139-.287-.285Z" transform="translate(-0.013 0)" fill="#fff"/>
</svg>
