<svg xmlns="http://www.w3.org/2000/svg" width="28.162" height="27.768" viewBox="0 0 28.162 27.768">
  <g id="sports" transform="translate(0 -0.197)">
    <g id="Group_1" data-name="Group 1">
      <path id="Path_23" data-name="Path 23" d="M16.751.2A11.381,11.381,0,0,0,8.163,4.116,12.88,12.88,0,0,1,10.478,3.8c-.047-.1-.09-.187-.126-.265A10.259,10.259,0,0,1,18.775,1.5a10.234,10.234,0,0,0-1.957,3.619c.264.13.521.267.771.413a9.63,9.63,0,0,1,2.079-3.806A10.318,10.318,0,0,1,24.3,4.607a38.274,38.274,0,0,0-4.5,2.545c.207.19.412.382.606.585a36.465,36.465,0,0,1,4.453-2.48,10.289,10.289,0,0,1,2.138,5.2,17.438,17.438,0,0,1-4.492.15c.153.283.288.575.42.87.4.03.79.049,1.165.049a19.034,19.034,0,0,0,2.959-.24c0,.109.018.215.018.325a10.256,10.256,0,0,1-3.26,7.485,12.789,12.789,0,0,1-.49,1.834A11.4,11.4,0,0,0,16.751.2Z" fill="#fff"/>
      <path id="Path_24" data-name="Path 24" d="M20.85,10.147A11.41,11.41,0,0,0,.092,15.17,11.177,11.177,0,0,0,2.227,23.3a11.407,11.407,0,0,0,20.6-6.746c0-.2-.02-.4-.031-.6A11.32,11.32,0,0,0,20.85,10.147Zm-.371,5.8-2.348,4.062,1.545,2.679a10.363,10.363,0,0,1-4.021,3.249L14.478,23.9H9.785L8.343,26.4a10.338,10.338,0,0,1-5.451-4.046l1.8-3.119L2.346,15.17H1.2a10.242,10.242,0,0,1,1.659-4.376H6.143L8.49,6.729l-.029-.054a10.184,10.184,0,0,1,5.123-.2l-.146.254,2.346,4.062h4.179a10.256,10.256,0,0,1,1.729,5.159l-1.213,0Z" fill="#fff"/>
      <path id="Path_25" data-name="Path 25" d="M9.064,12.351,6.718,16.415l2.346,4.064h4.693L16.1,16.415l-2.347-4.064Z" fill="#fff"/>
    </g>
  </g>
</svg>
